<?xml version="1.0" encoding="UTF-8"?>
<!DOCTYPE svg PUBLIC "-//W3C//DTD SVG 1.1//EN" "http://www.w3.org/Graphics/SVG/1.1/DTD/svg11.dtd">
<svg xmlns="http://www.w3.org/2000/svg" version="1.1" width="1696px" height="429px" style="shape-rendering:geometricPrecision; text-rendering:geometricPrecision; image-rendering:optimizeQuality; fill-rule:evenodd; clip-rule:evenodd" xmlns:xlink="http://www.w3.org/1999/xlink">
<g><path style="opacity:1" fill="#1d89cd" d="M 1098.5,-0.5 C 1297.5,-0.5 1496.5,-0.5 1695.5,-0.5C 1695.5,105.5 1695.5,211.5 1695.5,317.5C 1474.5,317.5 1253.5,317.5 1032.5,317.5C 1054.18,211.429 1076.18,105.429 1098.5,-0.5 Z"/></g>
<g><path style="opacity:0.998" fill="#1b89cd" d="M -0.5,32.5 C 352.5,32.5 705.5,32.5 1058.5,32.5C 1037.07,138.145 1015.07,243.645 992.5,349C 661.5,349.5 330.5,349.667 -0.5,349.5C -0.5,243.833 -0.5,138.167 -0.5,32.5 Z"/></g>
<g><path style="opacity:1" fill="#fcfdfe" d="M 1587.5,33.5 C 1633.92,28.2599 1658.26,48.9266 1660.5,95.5C 1653.84,96.8307 1647.18,98.1641 1640.5,99.5C 1641.16,82.9716 1635.83,68.8049 1624.5,57C 1608.9,49.3507 1593.57,49.684 1578.5,58C 1569.4,66.5573 1565.9,77.0573 1568,89.5C 1568.89,98.2751 1572.22,105.942 1578,112.5C 1599,132.833 1620,153.167 1641,173.5C 1651.77,186.041 1659.1,200.374 1663,216.5C 1665.25,232.926 1662.25,248.259 1654,262.5C 1645.56,273.476 1634.39,279.976 1620.5,282C 1582.48,287.928 1558.65,272.428 1549,235.5C 1548.37,230.62 1547.54,225.786 1546.5,221C 1546.63,219.019 1547.3,217.353 1548.5,216C 1554.38,213.522 1560.38,212.355 1566.5,212.5C 1567.75,224.682 1570.92,236.348 1576,247.5C 1585.65,261.896 1599.15,267.396 1616.5,264C 1634.87,259.44 1643.54,247.607 1642.5,228.5C 1642.14,218.374 1639.3,209.041 1634,200.5C 1629.38,194.208 1624.38,188.208 1619,182.5C 1599.06,164.561 1579.73,145.894 1561,126.5C 1544.55,104.225 1542.22,80.5587 1554,55.5C 1562.51,44.0012 1573.68,36.6679 1587.5,33.5 Z"/></g>
<g><path style="opacity:1" fill="#fefefe" d="M 1132.5,35.5 C 1155.5,35.3334 1178.5,35.5 1201.5,36C 1227.51,39.6808 1242.68,54.5141 1247,80.5C 1251.08,101.913 1248.08,122.246 1238,141.5C 1229.16,154.182 1216.99,161.682 1201.5,164C 1185.84,164.5 1170.17,164.667 1154.5,164.5C 1154.5,202.833 1154.5,241.167 1154.5,279.5C 1147.17,279.5 1139.83,279.5 1132.5,279.5C 1132.5,198.167 1132.5,116.833 1132.5,35.5 Z"/></g>
<g><path style="opacity:1" fill="#fefefe" d="M 1278.5,35.5 C 1285.83,35.5 1293.17,35.5 1300.5,35.5C 1300.5,111.167 1300.5,186.833 1300.5,262.5C 1323.33,263.498 1346.33,263.831 1369.5,263.5C 1369.5,268.833 1369.5,274.167 1369.5,279.5C 1339.17,279.5 1308.83,279.5 1278.5,279.5C 1278.5,198.167 1278.5,116.833 1278.5,35.5 Z"/></g>
<g><path style="opacity:1" fill="#fcfdfe" d="M 1390.5,35.5 C 1397.83,35.5 1405.17,35.5 1412.5,35.5C 1412.04,100.853 1412.54,166.186 1414,231.5C 1416.92,252.927 1429.09,263.927 1450.5,264.5C 1473.16,265.998 1486.66,255.665 1491,233.5C 1491.67,229.5 1492.33,225.5 1493,221.5C 1493.5,159.501 1493.67,97.5009 1493.5,35.5C 1500.83,35.5 1508.17,35.5 1515.5,35.5C 1515.67,98.1676 1515.5,160.834 1515,223.5C 1513.85,236.121 1510.51,248.121 1505,259.5C 1495.3,273.611 1481.8,281.444 1464.5,283C 1445.93,285.553 1428.6,282.219 1412.5,273C 1401.81,264.803 1395.31,253.969 1393,240.5C 1392.33,235.167 1391.67,229.833 1391,224.5C 1390.5,161.501 1390.33,98.5009 1390.5,35.5 Z"/></g>
<g><path style="opacity:1" fill="#1b89cd" d="M 1192.5,53.5 C 1209.81,52.7237 1220.31,60.7237 1224,77.5C 1225.91,91.4845 1225.91,105.485 1224,119.5C 1220.7,136.237 1210.53,145.237 1193.5,146.5C 1180.83,146.5 1168.17,146.5 1155.5,146.5C 1155.5,115.5 1155.5,84.5 1155.5,53.5C 1167.83,53.5 1180.17,53.5 1192.5,53.5 Z"/></g>
<g><path style="opacity:1" fill="#5aa3d9" d="M 1192.5,53.5 C 1180.17,53.5 1167.83,53.5 1155.5,53.5C 1155.5,84.5 1155.5,115.5 1155.5,146.5C 1168.17,146.5 1180.83,146.5 1193.5,146.5C 1180.68,147.495 1167.68,147.829 1154.5,147.5C 1154.5,115.833 1154.5,84.1667 1154.5,52.5C 1167.34,52.1713 1180.01,52.5046 1192.5,53.5 Z"/></g>
<g><path style="opacity:1" fill="#fdfefe" d="M 394.5,65.5 C 445.207,60.5403 470.541,83.5403 470.5,134.5C 455.216,136.827 439.882,138.827 424.5,140.5C 424.201,131.371 423.035,122.371 421,113.5C 415.548,103.651 408.215,101.984 399,108.5C 390.994,122.449 391.994,135.783 402,148.5C 417.646,163.811 433.646,178.811 450,193.5C 473.64,218.02 480.64,246.686 471,279.5C 461.783,300.696 445.617,312.862 422.5,316C 401.876,319.109 382.876,315.109 365.5,304C 353.776,293.391 346.61,280.224 344,264.5C 342.182,255.925 341.348,247.258 341.5,238.5C 356.834,236.5 372.168,234.5 387.5,232.5C 387.621,242.722 389.121,252.722 392,262.5C 395.465,272.955 402.632,277.122 413.5,275C 416.196,274.31 418.363,272.81 420,270.5C 425.25,254.165 422.25,239.499 411,226.5C 397.283,212.947 383.117,199.947 368.5,187.5C 342.805,163.717 335.305,135.051 346,101.5C 350.999,89.5011 359.166,80.3345 370.5,74C 378.404,70.5357 386.404,67.7024 394.5,65.5 Z"/></g>
<g><path style="opacity:1" fill="#fefefe" d="M 867.5,65.5 C 885.859,64.1339 903.859,65.9673 921.5,71C 936.641,76.8076 947.141,87.3076 953,102.5C 955.749,111.329 957.749,120.329 959,129.5C 959.667,169.167 959.667,208.833 959,248.5C 958.026,263.373 954.026,277.373 947,290.5C 937.261,304.123 924.095,312.29 907.5,315C 888.583,317.827 869.917,316.827 851.5,312C 829.063,302.209 816.563,285.042 814,260.5C 812.371,216.862 812.038,173.195 813,129.5C 814.586,93.7659 832.752,72.4326 867.5,65.5 Z"/></g>
<g><path style="opacity:1" fill="#fefefe" d="M 101.5,205.5 C 96.6042,203.554 91.2709,202.887 85.5,203.5C 85.5,240.167 85.5,276.833 85.5,313.5C 67.5,313.5 49.5,313.5 31.5,313.5C 31.5,231.833 31.5,150.167 31.5,68.5C 58.1687,68.3334 84.8354,68.5 111.5,69C 126.992,69.5396 141.659,73.2063 155.5,80C 170.181,89.8455 178.348,103.679 180,121.5C 181.196,137.814 179.53,153.814 175,169.5C 170.225,180.608 162.391,188.775 151.5,194C 150.978,194.561 150.645,195.228 150.5,196C 162.029,235.077 173.029,274.244 183.5,313.5C 164.833,313.5 146.167,313.5 127.5,313.5C 119.459,277.338 110.793,241.338 101.5,205.5 Z"/></g>
<g><path style="opacity:1" fill="#fefefe" d="M 266.5,105.5 C 265.503,125.66 265.17,145.993 265.5,166.5C 279.833,166.5 294.167,166.5 308.5,166.5C 308.5,178.833 308.5,191.167 308.5,203.5C 294.167,203.5 279.833,203.5 265.5,203.5C 265.5,227.833 265.5,252.167 265.5,276.5C 283.993,277.497 302.659,277.83 321.5,277.5C 321.5,289.167 321.5,300.833 321.5,312.5C 284.833,312.5 248.167,312.5 211.5,312.5C 211.5,231.167 211.5,149.833 211.5,68.5C 248.167,68.5 284.833,68.5 321.5,68.5C 321.5,80.8333 321.5,93.1667 321.5,105.5C 303.167,105.5 284.833,105.5 266.5,105.5 Z"/></g>
<g><path style="opacity:1" fill="#fefefe" d="M 524.5,313.5 C 524.5,245.167 524.5,176.833 524.5,108.5C 512.167,108.5 499.833,108.5 487.5,108.5C 487.5,95.1667 487.5,81.8333 487.5,68.5C 529.833,68.5 572.167,68.5 614.5,68.5C 614.5,81.8333 614.5,95.1667 614.5,108.5C 602.5,108.5 590.5,108.5 578.5,108.5C 578.5,176.833 578.5,245.167 578.5,313.5C 560.5,313.5 542.5,313.5 524.5,313.5 Z"/></g>
<g><path style="opacity:1" fill="#fefefe" d="M 636.5,68.5 C 664.502,68.3334 692.502,68.5 720.5,69C 737.783,69.8957 753.449,75.2291 767.5,85C 780.685,98.3781 786.685,114.545 785.5,133.5C 785.057,144.653 783.557,155.653 781,166.5C 779.194,171.446 776.861,176.112 774,180.5C 768.198,186.287 762.031,191.454 755.5,196C 766.694,234.822 777.694,273.655 788.5,312.5C 769.845,313.5 751.179,313.833 732.5,313.5C 723.519,276.909 714.852,240.243 706.5,203.5C 701.167,203.5 695.833,203.5 690.5,203.5C 690.5,240.167 690.5,276.833 690.5,313.5C 672.5,313.5 654.5,313.5 636.5,313.5C 636.5,231.833 636.5,150.167 636.5,68.5 Z"/></g>
<g><path style="opacity:1" fill="#deecf7" d="M 1278.5,35.5 C 1278.5,116.833 1278.5,198.167 1278.5,279.5C 1308.83,279.5 1339.17,279.5 1369.5,279.5C 1369.5,279.833 1369.5,280.167 1369.5,280.5C 1338.83,280.5 1308.17,280.5 1277.5,280.5C 1277.17,198.665 1277.5,116.998 1278.5,35.5 Z"/></g>
<g><path style="opacity:1" fill="#1e8acd" d="M 879.5,103.5 C 894.977,101.312 903.144,107.979 904,123.5C 904.667,167.833 904.667,212.167 904,256.5C 902.143,277.383 891.81,283.383 873,274.5C 870.273,270.61 868.607,266.277 868,261.5C 867.333,214.833 867.333,168.167 868,121.5C 868.578,113.329 872.411,107.329 879.5,103.5 Z"/></g>
<g><path style="opacity:1" fill="#1d89cd" d="M 85.5,104.5 C 93.84,104.334 102.173,104.5 110.5,105C 125.403,110.62 131.737,121.453 129.5,137.5C 131.222,149.461 127.889,159.628 119.5,168C 115.417,170.105 111.083,171.438 106.5,172C 99.5079,172.5 92.5079,172.666 85.5,172.5C 85.5,149.833 85.5,127.167 85.5,104.5 Z"/></g>
<g><path style="opacity:1" fill="#1d89cd" d="M 690.5,104.5 C 698.84,104.334 707.173,104.5 715.5,105C 723.111,106.946 728.611,111.446 732,118.5C 735.333,131.5 735.333,144.5 732,157.5C 728.47,166.86 721.636,171.693 711.5,172C 704.508,172.5 697.508,172.666 690.5,172.5C 690.5,149.833 690.5,127.167 690.5,104.5 Z"/></g>
<g><path style="opacity:1" fill="#89bce4" d="M 487.5,108.5 C 499.833,108.5 512.167,108.5 524.5,108.5C 524.5,176.833 524.5,245.167 524.5,313.5C 523.501,245.669 523.167,177.669 523.5,109.5C 511.322,109.828 499.322,109.495 487.5,108.5 Z"/></g>
<g><path style="opacity:1" fill="#5ba4d9" d="M 266.5,105.5 C 266.5,125.5 266.5,145.5 266.5,165.5C 280.677,165.171 294.677,165.504 308.5,166.5C 294.167,166.5 279.833,166.5 265.5,166.5C 265.17,145.993 265.503,125.66 266.5,105.5 Z"/></g>
<g><path style="opacity:1" fill="#d3e6f5" d="M 1132.5,35.5 C 1132.5,116.833 1132.5,198.167 1132.5,279.5C 1139.83,279.5 1147.17,279.5 1154.5,279.5C 1147.02,280.492 1139.35,280.825 1131.5,280.5C 1131.17,198.665 1131.5,116.998 1132.5,35.5 Z"/></g>
<g><path style="opacity:1" fill="#3d95d2" d="M 101.5,205.5 C 96.5947,204.555 91.5947,204.221 86.5,204.5C 86.8318,241.004 86.4984,277.337 85.5,313.5C 85.5,276.833 85.5,240.167 85.5,203.5C 91.2709,202.887 96.6042,203.554 101.5,205.5 Z"/></g>
<g><path style="opacity:1" fill="#57a2d8" d="M 308.5,203.5 C 294.677,204.496 280.677,204.829 266.5,204.5C 266.5,228.5 266.5,252.5 266.5,276.5C 266.167,276.5 265.833,276.5 265.5,276.5C 265.5,252.167 265.5,227.833 265.5,203.5C 279.833,203.5 294.167,203.5 308.5,203.5 Z"/></g>
<g><path style="opacity:1" fill="#9ac6e8" d="M 1300.5,262.5 C 1323.83,262.5 1347.17,262.5 1370.5,262.5C 1370.82,268.69 1370.49,274.69 1369.5,280.5C 1369.5,280.167 1369.5,279.833 1369.5,279.5C 1369.5,274.167 1369.5,268.833 1369.5,263.5C 1346.33,263.831 1323.33,263.498 1300.5,262.5 Z"/></g>
<g><path style="opacity:1" fill="#c9e0f2" d="M 265.5,276.5 C 265.833,276.5 266.167,276.5 266.5,276.5C 285.167,276.5 303.833,276.5 322.5,276.5C 322.5,288.833 322.5,301.167 322.5,313.5C 285.33,313.832 248.33,313.498 211.5,312.5C 248.167,312.5 284.833,312.5 321.5,312.5C 321.5,300.833 321.5,289.167 321.5,277.5C 302.659,277.83 283.993,277.497 265.5,276.5 Z"/></g>
<g><path style="opacity:0.867" fill="#1a89cd" d="M 89.5,376.5 C 94.5111,376.334 99.5111,376.501 104.5,377C 107.937,378.105 110.437,380.272 112,383.5C 113.584,392.758 113.917,402.091 113,411.5C 111.932,416.235 109.099,419.402 104.5,421C 97.9159,422.141 91.5826,421.474 85.5,419C 83.9512,417.786 82.7845,416.286 82,414.5C 80.4165,405.242 80.0832,395.909 81,386.5C 82.2613,381.745 85.0947,378.412 89.5,376.5 Z M 91.5,382.5 C 95.1817,382.335 98.8484,382.501 102.5,383C 104.726,384.227 106.226,386.061 107,388.5C 107.667,395.5 107.667,402.5 107,409.5C 106.226,411.939 104.726,413.773 102.5,415C 98.8333,415.667 95.1667,415.667 91.5,415C 89.2739,413.773 87.7739,411.939 87,409.5C 86.3333,402.5 86.3333,395.5 87,388.5C 87.9793,386.032 89.4793,384.032 91.5,382.5 Z"/></g>
<g><path style="opacity:0.867" fill="#1a89cd" d="M 213.5,376.5 C 218.511,376.334 223.511,376.501 228.5,377C 231.937,378.105 234.437,380.272 236,383.5C 237.584,392.758 237.917,402.091 237,411.5C 235.932,416.235 233.099,419.402 228.5,421C 221.916,422.141 215.583,421.474 209.5,419C 207.951,417.786 206.785,416.286 206,414.5C 204.416,405.242 204.083,395.909 205,386.5C 206.261,381.745 209.095,378.412 213.5,376.5 Z M 215.5,382.5 C 219.182,382.335 222.848,382.501 226.5,383C 228.726,384.227 230.226,386.061 231,388.5C 231.667,395.5 231.667,402.5 231,409.5C 230.226,411.939 228.726,413.773 226.5,415C 222.833,415.667 219.167,415.667 215.5,415C 213.274,413.773 211.774,411.939 211,409.5C 210.333,402.5 210.333,395.5 211,388.5C 211.979,386.032 213.479,384.032 215.5,382.5 Z"/></g>
<g><path style="opacity:0.867" fill="#1a89cd" d="M 487.5,376.5 C 492.511,376.334 497.511,376.501 502.5,377C 505.937,378.105 508.437,380.272 510,383.5C 511.584,392.758 511.917,402.091 511,411.5C 509.932,416.235 507.099,419.402 502.5,421C 495.916,422.141 489.583,421.474 483.5,419C 481.951,417.786 480.785,416.286 480,414.5C 478.416,405.242 478.083,395.909 479,386.5C 480.261,381.745 483.095,378.412 487.5,376.5 Z M 489.5,382.5 C 493.182,382.335 496.848,382.501 500.5,383C 502.726,384.227 504.226,386.061 505,388.5C 505.667,395.5 505.667,402.5 505,409.5C 504.226,411.939 502.726,413.773 500.5,415C 496.833,415.667 493.167,415.667 489.5,415C 487.274,413.773 485.774,411.939 485,409.5C 484.333,402.5 484.333,395.5 485,388.5C 485.979,386.032 487.479,384.032 489.5,382.5 Z"/></g>
<g><path style="opacity:0.861" fill="#1a89cd" d="M 1121.5,376.5 C 1127.76,375.872 1133.76,376.705 1139.5,379C 1143.02,382.398 1144.69,386.564 1144.5,391.5C 1142.4,391.799 1140.4,391.466 1138.5,390.5C 1136.21,382.904 1131.21,380.404 1123.5,383C 1121.27,384.227 1119.77,386.061 1119,388.5C 1118.33,395.5 1118.33,402.5 1119,409.5C 1120.44,414.141 1123.61,416.141 1128.5,415.5C 1136.46,415.526 1139.8,411.526 1138.5,403.5C 1135.5,403.5 1132.5,403.5 1129.5,403.5C 1129.5,401.5 1129.5,399.5 1129.5,397.5C 1134.5,397.5 1139.5,397.5 1144.5,397.5C 1146.86,418.973 1137.86,426.139 1117.5,419C 1115.11,417.048 1113.61,414.548 1113,411.5C 1112.33,403.167 1112.33,394.833 1113,386.5C 1114.26,381.745 1117.09,378.412 1121.5,376.5 Z"/></g>
<g><path style="opacity:0.867" fill="#1a89cd" d="M 1165.5,376.5 C 1170.51,376.334 1175.51,376.501 1180.5,377C 1183.94,378.105 1186.44,380.272 1188,383.5C 1189.58,392.758 1189.92,402.091 1189,411.5C 1187.93,416.235 1185.1,419.402 1180.5,421C 1173.92,422.141 1167.58,421.474 1161.5,419C 1159.95,417.786 1158.78,416.286 1158,414.5C 1156.42,405.242 1156.08,395.909 1157,386.5C 1158.26,381.745 1161.09,378.412 1165.5,376.5 Z M 1167.5,382.5 C 1171.18,382.335 1174.85,382.501 1178.5,383C 1180.73,384.227 1182.23,386.061 1183,388.5C 1183.67,395.5 1183.67,402.5 1183,409.5C 1182.23,411.939 1180.73,413.773 1178.5,415C 1174.83,415.667 1171.17,415.667 1167.5,415C 1165.27,413.773 1163.77,411.939 1163,409.5C 1162.33,402.5 1162.33,395.5 1163,388.5C 1163.98,386.032 1165.48,384.032 1167.5,382.5 Z"/></g>
<g><path style="opacity:0.867" fill="#1a89cd" d="M 1306.5,376.5 C 1311.51,376.334 1316.51,376.501 1321.5,377C 1324.94,378.105 1327.44,380.272 1329,383.5C 1330.58,392.758 1330.92,402.091 1330,411.5C 1328.93,416.235 1326.1,419.402 1321.5,421C 1314.92,422.141 1308.58,421.474 1302.5,419C 1300.95,417.786 1299.78,416.286 1299,414.5C 1297.42,405.242 1297.08,395.909 1298,386.5C 1299.26,381.745 1302.09,378.412 1306.5,376.5 Z M 1308.5,382.5 C 1312.18,382.335 1315.85,382.501 1319.5,383C 1321.73,384.227 1323.23,386.061 1324,388.5C 1324.67,395.5 1324.67,402.5 1324,409.5C 1323.23,411.939 1321.73,413.773 1319.5,415C 1315.83,415.667 1312.17,415.667 1308.5,415C 1306.27,413.773 1304.77,411.939 1304,409.5C 1303.33,402.5 1303.33,395.5 1304,388.5C 1304.98,386.032 1306.48,384.032 1308.5,382.5 Z"/></g>
<g><path style="opacity:0.865" fill="#1a89cd" d="M 1417.5,376.5 C 1423.76,375.872 1429.76,376.705 1435.5,379C 1438.64,382.572 1440.3,386.738 1440.5,391.5C 1435.88,392.691 1433.38,391.025 1433,386.5C 1429.34,382.633 1424.84,381.466 1419.5,383C 1417.19,384.109 1415.69,385.943 1415,388.5C 1414.33,395.5 1414.33,402.5 1415,409.5C 1415.69,412.057 1417.19,413.891 1419.5,415C 1427.56,417.733 1432.56,415.066 1434.5,407C 1436.47,406.505 1438.47,406.338 1440.5,406.5C 1440.39,413.23 1437.39,418.063 1431.5,421C 1426.83,421.667 1422.17,421.667 1417.5,421C 1412.9,419.402 1410.07,416.235 1409,411.5C 1408.33,403.167 1408.33,394.833 1409,386.5C 1410.26,381.745 1413.09,378.412 1417.5,376.5 Z"/></g>
<g><path style="opacity:0.867" fill="#1a89cd" d="M 1460.5,376.5 C 1465.51,376.334 1470.51,376.501 1475.5,377C 1478.94,378.105 1481.44,380.272 1483,383.5C 1484.58,392.758 1484.92,402.091 1484,411.5C 1482.93,416.235 1480.1,419.402 1475.5,421C 1468.92,422.141 1462.58,421.474 1456.5,419C 1454.95,417.786 1453.78,416.286 1453,414.5C 1451.42,405.242 1451.08,395.909 1452,386.5C 1453.26,381.745 1456.09,378.412 1460.5,376.5 Z M 1462.5,382.5 C 1466.18,382.335 1469.85,382.501 1473.5,383C 1475.73,384.227 1477.23,386.061 1478,388.5C 1478.67,395.5 1478.67,402.5 1478,409.5C 1477.23,411.939 1475.73,413.773 1473.5,415C 1469.83,415.667 1466.17,415.667 1462.5,415C 1460.27,413.773 1458.77,411.939 1458,409.5C 1457.33,402.5 1457.33,395.5 1458,388.5C 1458.98,386.032 1460.48,384.032 1462.5,382.5 Z"/></g>
<g><path style="opacity:0.907" fill="#1a89cd" d="M 0.5,377.5 C 9.5,377.5 18.5,377.5 27.5,377.5C 27.5,379.5 27.5,381.5 27.5,383.5C 20.5,383.5 13.5,383.5 6.5,383.5C 6.5,387.5 6.5,391.5 6.5,395.5C 12.5,395.5 18.5,395.5 24.5,395.5C 24.5,397.5 24.5,399.5 24.5,401.5C 18.5,401.5 12.5,401.5 6.5,401.5C 6.5,407.833 6.5,414.167 6.5,420.5C 4.5,420.5 2.5,420.5 0.5,420.5C 0.5,406.167 0.5,391.833 0.5,377.5 Z"/></g>
<g><path style="opacity:0.886" fill="#1a89cd" d="M 38.5,377.5 C 46.1739,377.334 53.8406,377.5 61.5,378C 65.4064,378.973 67.573,381.473 68,385.5C 70.1584,393.716 67.6584,399.882 60.5,404C 63.6262,409.085 66.6262,414.251 69.5,419.5C 67.2351,420.647 64.9018,420.814 62.5,420C 59.417,414.498 56.0836,409.165 52.5,404C 49.854,403.503 47.1873,403.336 44.5,403.5C 44.5,409.167 44.5,414.833 44.5,420.5C 42.5,420.5 40.5,420.5 38.5,420.5C 38.5,406.167 38.5,391.833 38.5,377.5 Z M 44.5,383.5 C 49.5111,383.334 54.5111,383.501 59.5,384C 63.7062,388.794 63.3729,393.127 58.5,397C 53.8452,397.499 49.1785,397.666 44.5,397.5C 44.5,392.833 44.5,388.167 44.5,383.5 Z"/></g>
<g><path style="opacity:0.888" fill="#1a89cd" d="M 125.5,377.5 C 128.833,377.5 132.167,377.5 135.5,377.5C 138.715,388.146 142.715,398.479 147.5,408.5C 151.693,398.589 155.693,388.589 159.5,378.5C 162.428,377.516 165.428,377.183 168.5,377.5C 168.5,391.833 168.5,406.167 168.5,420.5C 166.5,420.5 164.5,420.5 162.5,420.5C 162.667,409.828 162.5,399.161 162,388.5C 157.86,399.088 154.027,409.754 150.5,420.5C 148.396,420.799 146.396,420.466 144.5,419.5C 140.056,408.945 135.889,398.278 132,387.5C 131.5,398.495 131.333,409.495 131.5,420.5C 129.5,420.5 127.5,420.5 125.5,420.5C 125.5,406.167 125.5,391.833 125.5,377.5 Z"/></g>
<g><path style="opacity:0.886" fill="#1a89cd" d="M 251.5,377.5 C 259.174,377.334 266.841,377.5 274.5,378C 278.406,378.973 280.573,381.473 281,385.5C 283.158,393.716 280.658,399.882 273.5,404C 276.626,409.085 279.626,414.251 282.5,419.5C 280.235,420.647 277.902,420.814 275.5,420C 272.417,414.498 269.084,409.165 265.5,404C 262.854,403.503 260.187,403.336 257.5,403.5C 257.5,409.167 257.5,414.833 257.5,420.5C 255.5,420.5 253.5,420.5 251.5,420.5C 251.5,406.167 251.5,391.833 251.5,377.5 Z M 257.5,383.5 C 262.511,383.334 267.511,383.501 272.5,384C 276.706,388.794 276.373,393.127 271.5,397C 266.845,397.499 262.179,397.666 257.5,397.5C 257.5,392.833 257.5,388.167 257.5,383.5 Z"/></g>
<g><path style="opacity:0.893" fill="#1a89cd" d="M 294.5,377.5 C 301.841,377.334 309.174,377.5 316.5,378C 320.333,379.167 322.833,381.667 324,385.5C 326,394.5 326,403.5 324,412.5C 322.833,416.333 320.333,418.833 316.5,420C 309.174,420.5 301.841,420.666 294.5,420.5C 294.5,406.167 294.5,391.833 294.5,377.5 Z M 300.5,383.5 C 314.023,380.23 320.356,385.397 319.5,399C 320.356,412.603 314.023,417.77 300.5,414.5C 300.5,404.167 300.5,393.833 300.5,383.5 Z"/></g>
<g><path style="opacity:0.892" fill="#1a89cd" d="M 338.5,377.5 C 347.833,377.5 357.167,377.5 366.5,377.5C 366.5,379.5 366.5,381.5 366.5,383.5C 359.167,383.5 351.833,383.5 344.5,383.5C 344.5,387.5 344.5,391.5 344.5,395.5C 350.833,395.5 357.167,395.5 363.5,395.5C 363.5,397.5 363.5,399.5 363.5,401.5C 357.167,401.5 350.833,401.5 344.5,401.5C 344.5,405.833 344.5,410.167 344.5,414.5C 352.167,414.5 359.833,414.5 367.5,414.5C 367.5,416.5 367.5,418.5 367.5,420.5C 357.833,420.5 348.167,420.5 338.5,420.5C 338.5,406.167 338.5,391.833 338.5,377.5 Z"/></g>
<g><path style="opacity:0.886" fill="#1a89cd" d="M 378.5,377.5 C 386.174,377.334 393.841,377.5 401.5,378C 405.406,378.973 407.573,381.473 408,385.5C 410.158,393.716 407.658,399.882 400.5,404C 403.626,409.085 406.626,414.251 409.5,419.5C 407.235,420.647 404.902,420.814 402.5,420C 399.417,414.498 396.084,409.165 392.5,404C 389.854,403.503 387.187,403.336 384.5,403.5C 384.5,409.167 384.5,414.833 384.5,420.5C 382.5,420.5 380.5,420.5 378.5,420.5C 378.5,406.167 378.5,391.833 378.5,377.5 Z M 384.5,383.5 C 389.511,383.334 394.511,383.501 399.5,384C 403.706,388.794 403.373,393.127 398.5,397C 393.845,397.499 389.179,397.666 384.5,397.5C 384.5,392.833 384.5,388.167 384.5,383.5 Z"/></g>
<g><path style="opacity:0.899" fill="#1a89cd" d="M 438.5,377.5 C 448.833,377.5 459.167,377.5 469.5,377.5C 469.5,379.5 469.5,381.5 469.5,383.5C 465.5,383.5 461.5,383.5 457.5,383.5C 457.5,395.833 457.5,408.167 457.5,420.5C 455.5,420.5 453.5,420.5 451.5,420.5C 451.5,408.167 451.5,395.833 451.5,383.5C 447.167,383.5 442.833,383.5 438.5,383.5C 438.5,381.5 438.5,379.5 438.5,377.5 Z"/></g>
<g><path style="opacity:0.893" fill="#1a89cd" d="M 547.5,377.5 C 554.841,377.334 562.174,377.5 569.5,378C 573.333,379.167 575.833,381.667 577,385.5C 579,394.5 579,403.5 577,412.5C 575.833,416.333 573.333,418.833 569.5,420C 562.174,420.5 554.841,420.666 547.5,420.5C 547.5,406.167 547.5,391.833 547.5,377.5 Z M 553.5,383.5 C 567.023,380.23 573.356,385.397 572.5,399C 573.356,412.603 567.023,417.77 553.5,414.5C 553.5,404.167 553.5,393.833 553.5,383.5 Z"/></g>
<g><path style="opacity:0.892" fill="#1a89cd" d="M 591.5,377.5 C 600.833,377.5 610.167,377.5 619.5,377.5C 619.5,379.5 619.5,381.5 619.5,383.5C 612.167,383.5 604.833,383.5 597.5,383.5C 597.5,387.5 597.5,391.5 597.5,395.5C 603.833,395.5 610.167,395.5 616.5,395.5C 616.5,397.5 616.5,399.5 616.5,401.5C 610.167,401.5 603.833,401.5 597.5,401.5C 597.5,405.833 597.5,410.167 597.5,414.5C 605.167,414.5 612.833,414.5 620.5,414.5C 620.5,416.5 620.5,418.5 620.5,420.5C 610.833,420.5 601.167,420.5 591.5,420.5C 591.5,406.167 591.5,391.833 591.5,377.5 Z"/></g>
<g><path style="opacity:0.908" fill="#1a89cd" d="M 631.5,377.5 C 633.5,377.5 635.5,377.5 637.5,377.5C 637.5,389.833 637.5,402.167 637.5,414.5C 644.167,414.5 650.833,414.5 657.5,414.5C 657.5,416.5 657.5,418.5 657.5,420.5C 648.833,420.5 640.167,420.5 631.5,420.5C 631.5,406.167 631.5,391.833 631.5,377.5 Z"/></g>
<g><path style="opacity:0.911" fill="#1a89cd" d="M 668.5,377.5 C 670.5,377.5 672.5,377.5 674.5,377.5C 674.5,391.833 674.5,406.167 674.5,420.5C 672.5,420.5 670.5,420.5 668.5,420.5C 668.5,406.167 668.5,391.833 668.5,377.5 Z"/></g>
<g><path style="opacity:0.856" fill="#1a89cd" d="M 684.5,378.5 C 686.895,377.186 689.395,377.186 692,378.5C 695.469,389.241 699.136,399.908 703,410.5C 706.809,399.574 710.309,388.574 713.5,377.5C 715.924,377.192 718.257,377.526 720.5,378.5C 715.624,392.461 710.957,406.461 706.5,420.5C 703.881,420.768 701.381,420.435 699,419.5C 694.235,405.697 689.401,392.031 684.5,378.5 Z"/></g>
<g><path style="opacity:0.892" fill="#1a89cd" d="M 731.5,377.5 C 740.833,377.5 750.167,377.5 759.5,377.5C 759.5,379.5 759.5,381.5 759.5,383.5C 752.167,383.5 744.833,383.5 737.5,383.5C 737.5,387.5 737.5,391.5 737.5,395.5C 743.833,395.5 750.167,395.5 756.5,395.5C 756.5,397.5 756.5,399.5 756.5,401.5C 750.167,401.5 743.833,401.5 737.5,401.5C 737.5,405.833 737.5,410.167 737.5,414.5C 745.167,414.5 752.833,414.5 760.5,414.5C 760.5,416.5 760.5,418.5 760.5,420.5C 750.833,420.5 741.167,420.5 731.5,420.5C 731.5,406.167 731.5,391.833 731.5,377.5 Z"/></g>
<g><path style="opacity:0.886" fill="#1a89cd" d="M 771.5,377.5 C 779.174,377.334 786.841,377.5 794.5,378C 798.406,378.973 800.573,381.473 801,385.5C 803.158,393.716 800.658,399.882 793.5,404C 796.626,409.085 799.626,414.251 802.5,419.5C 800.235,420.647 797.902,420.814 795.5,420C 792.417,414.498 789.084,409.165 785.5,404C 782.854,403.503 780.187,403.336 777.5,403.5C 777.5,409.167 777.5,414.833 777.5,420.5C 775.5,420.5 773.5,420.5 771.5,420.5C 771.5,406.167 771.5,391.833 771.5,377.5 Z M 777.5,383.5 C 782.511,383.334 787.511,383.501 792.5,384C 796.706,388.794 796.373,393.127 791.5,397C 786.845,397.499 782.179,397.666 777.5,397.5C 777.5,392.833 777.5,388.167 777.5,383.5 Z"/></g>
<g><path style="opacity:0.86" fill="#1a89cd" d="M 808.5,378.5 C 810.966,377.366 813.633,377.199 816.5,378C 819.874,383.916 823.374,389.75 827,395.5C 830.123,389.418 833.623,383.585 837.5,378C 839.902,377.186 842.235,377.353 844.5,378.5C 839.468,386.369 834.635,394.369 830,402.5C 829.501,408.491 829.334,414.491 829.5,420.5C 827.5,420.5 825.5,420.5 823.5,420.5C 823.666,414.158 823.5,407.825 823,401.5C 818.142,393.769 813.309,386.102 808.5,378.5 Z"/></g>
<g><path style="opacity:0.864" fill="#1a89cd" d="M 885.5,378.5 C 887.693,377.203 890.027,377.203 892.5,378.5C 894.878,388.354 897.711,398.021 901,407.5C 903.822,397.877 906.489,388.211 909,378.5C 911.064,377.409 913.231,377.242 915.5,378C 918.267,387.901 921.267,397.734 924.5,407.5C 927.48,397.579 930.147,387.579 932.5,377.5C 934.857,377.337 937.19,377.503 939.5,378C 935.5,392 931.5,406 927.5,420C 925.19,420.497 922.857,420.663 920.5,420.5C 918.46,410.34 915.793,400.34 912.5,390.5C 909.514,400.11 906.68,409.777 904,419.5C 901.619,420.435 899.119,420.768 896.5,420.5C 893.435,406.236 889.769,392.236 885.5,378.5 Z"/></g>
<g><path style="opacity:0.892" fill="#1a89cd" d="M 950.5,377.5 C 959.833,377.5 969.167,377.5 978.5,377.5C 978.5,379.5 978.5,381.5 978.5,383.5C 971.167,383.5 963.833,383.5 956.5,383.5C 956.5,387.5 956.5,391.5 956.5,395.5C 962.833,395.5 969.167,395.5 975.5,395.5C 975.5,397.5 975.5,399.5 975.5,401.5C 969.167,401.5 962.833,401.5 956.5,401.5C 956.5,405.833 956.5,410.167 956.5,414.5C 964.167,414.5 971.833,414.5 979.5,414.5C 979.5,416.5 979.5,418.5 979.5,420.5C 969.833,420.5 960.167,420.5 950.5,420.5C 950.5,406.167 950.5,391.833 950.5,377.5 Z"/></g>
<g><path style="opacity:0.855" fill="#1a89cd" d="M 989.5,377.5 C 991.833,377.5 994.167,377.5 996.5,377.5C 995.746,382.463 995.413,387.463 995.5,392.5C 993.833,392.5 992.167,392.5 990.5,392.5C 989.836,387.527 989.503,382.527 989.5,377.5 Z"/></g>
<g><path style="opacity:0.856" fill="#1a89cd" d="M 1004.5,378.5 C 1006.9,377.186 1009.4,377.186 1012,378.5C 1015.47,389.241 1019.14,399.908 1023,410.5C 1026.81,399.574 1030.31,388.574 1033.5,377.5C 1035.92,377.192 1038.26,377.526 1040.5,378.5C 1035.62,392.461 1030.96,406.461 1026.5,420.5C 1023.88,420.768 1021.38,420.435 1019,419.5C 1014.23,405.697 1009.4,392.031 1004.5,378.5 Z"/></g>
<g><path style="opacity:0.892" fill="#1a89cd" d="M 1051.5,377.5 C 1060.83,377.5 1070.17,377.5 1079.5,377.5C 1079.5,379.5 1079.5,381.5 1079.5,383.5C 1072.17,383.5 1064.83,383.5 1057.5,383.5C 1057.5,387.5 1057.5,391.5 1057.5,395.5C 1063.83,395.5 1070.17,395.5 1076.5,395.5C 1076.5,397.5 1076.5,399.5 1076.5,401.5C 1070.17,401.5 1063.83,401.5 1057.5,401.5C 1057.5,405.833 1057.5,410.167 1057.5,414.5C 1065.17,414.5 1072.83,414.5 1080.5,414.5C 1080.5,416.5 1080.5,418.5 1080.5,420.5C 1070.83,420.5 1061.17,420.5 1051.5,420.5C 1051.5,406.167 1051.5,391.833 1051.5,377.5 Z"/></g>
<g><path style="opacity:0.899" fill="#1a89cd" d="M 1197.5,377.5 C 1207.83,377.5 1218.17,377.5 1228.5,377.5C 1228.5,379.5 1228.5,381.5 1228.5,383.5C 1224.5,383.5 1220.5,383.5 1216.5,383.5C 1216.5,395.833 1216.5,408.167 1216.5,420.5C 1214.5,420.5 1212.5,420.5 1210.5,420.5C 1210.5,408.167 1210.5,395.833 1210.5,383.5C 1206.17,383.5 1201.83,383.5 1197.5,383.5C 1197.5,381.5 1197.5,379.5 1197.5,377.5 Z"/></g>
<g><path style="opacity:0.86" fill="#1a89cd" d="M 1254.5,378.5 C 1256.97,377.366 1259.63,377.199 1262.5,378C 1265.87,383.916 1269.37,389.75 1273,395.5C 1276.12,389.418 1279.62,383.585 1283.5,378C 1285.9,377.186 1288.24,377.353 1290.5,378.5C 1285.47,386.369 1280.63,394.369 1276,402.5C 1275.5,408.491 1275.33,414.491 1275.5,420.5C 1273.5,420.5 1271.5,420.5 1269.5,420.5C 1269.67,414.158 1269.5,407.825 1269,401.5C 1264.14,393.769 1259.31,386.102 1254.5,378.5 Z"/></g>
<g><path style="opacity:0.885" fill="#1a89cd" d="M 1342.5,377.5 C 1344.5,377.5 1346.5,377.5 1348.5,377.5C 1348.09,389.229 1348.59,400.896 1350,412.5C 1352.31,414.888 1355.14,415.888 1358.5,415.5C 1361.86,415.888 1364.69,414.888 1367,412.5C 1368.41,400.896 1368.91,389.229 1368.5,377.5C 1370.5,377.5 1372.5,377.5 1374.5,377.5C 1374.94,389.909 1374.44,402.242 1373,414.5C 1369.76,420.262 1364.76,422.595 1358,421.5C 1351.96,422.473 1347.29,420.473 1344,415.5C 1342.58,402.894 1342.08,390.228 1342.5,377.5 Z"/></g>
<g><path style="opacity:0.856" fill="#1a89cd" d="M 1492.5,378.5 C 1494.9,377.186 1497.4,377.186 1500,378.5C 1503.47,389.241 1507.14,399.908 1511,410.5C 1514.81,399.574 1518.31,388.574 1521.5,377.5C 1523.92,377.192 1526.26,377.526 1528.5,378.5C 1523.62,392.461 1518.96,406.461 1514.5,420.5C 1511.88,420.768 1509.38,420.435 1507,419.5C 1502.23,405.697 1497.4,392.031 1492.5,378.5 Z"/></g>
<g><path style="opacity:0.892" fill="#1a89cd" d="M 1539.5,377.5 C 1548.83,377.5 1558.17,377.5 1567.5,377.5C 1567.5,379.5 1567.5,381.5 1567.5,383.5C 1560.17,383.5 1552.83,383.5 1545.5,383.5C 1545.5,387.5 1545.5,391.5 1545.5,395.5C 1551.83,395.5 1558.17,395.5 1564.5,395.5C 1564.5,397.5 1564.5,399.5 1564.5,401.5C 1558.17,401.5 1551.83,401.5 1545.5,401.5C 1545.5,405.833 1545.5,410.167 1545.5,414.5C 1553.17,414.5 1560.83,414.5 1568.5,414.5C 1568.5,416.5 1568.5,418.5 1568.5,420.5C 1558.83,420.5 1549.17,420.5 1539.5,420.5C 1539.5,406.167 1539.5,391.833 1539.5,377.5 Z"/></g>
<g><path style="opacity:0.886" fill="#1a89cd" d="M 1579.5,377.5 C 1587.17,377.334 1594.84,377.5 1602.5,378C 1606.41,378.973 1608.57,381.473 1609,385.5C 1611.16,393.716 1608.66,399.882 1601.5,404C 1604.63,409.085 1607.63,414.251 1610.5,419.5C 1608.24,420.647 1605.9,420.814 1603.5,420C 1600.42,414.498 1597.08,409.165 1593.5,404C 1590.85,403.503 1588.19,403.336 1585.5,403.5C 1585.5,409.167 1585.5,414.833 1585.5,420.5C 1583.5,420.5 1581.5,420.5 1579.5,420.5C 1579.5,406.167 1579.5,391.833 1579.5,377.5 Z M 1585.5,383.5 C 1590.51,383.334 1595.51,383.501 1600.5,384C 1604.71,388.794 1604.37,393.127 1599.5,397C 1594.85,397.499 1590.18,397.666 1585.5,397.5C 1585.5,392.833 1585.5,388.167 1585.5,383.5 Z"/></g>
<g><path style="opacity:0.892" fill="#1a89cd" d="M 1622.5,377.5 C 1631.83,377.5 1641.17,377.5 1650.5,377.5C 1650.5,379.5 1650.5,381.5 1650.5,383.5C 1643.17,383.5 1635.83,383.5 1628.5,383.5C 1628.5,387.5 1628.5,391.5 1628.5,395.5C 1634.83,395.5 1641.17,395.5 1647.5,395.5C 1647.5,397.5 1647.5,399.5 1647.5,401.5C 1641.17,401.5 1634.83,401.5 1628.5,401.5C 1628.5,405.833 1628.5,410.167 1628.5,414.5C 1636.17,414.5 1643.83,414.5 1651.5,414.5C 1651.5,416.5 1651.5,418.5 1651.5,420.5C 1641.83,420.5 1632.17,420.5 1622.5,420.5C 1622.5,406.167 1622.5,391.833 1622.5,377.5 Z"/></g>
<g><path style="opacity:0.893" fill="#1a89cd" d="M 1662.5,377.5 C 1669.84,377.334 1677.17,377.5 1684.5,378C 1688.33,379.167 1690.83,381.667 1692,385.5C 1694,394.5 1694,403.5 1692,412.5C 1690.83,416.333 1688.33,418.833 1684.5,420C 1677.17,420.5 1669.84,420.666 1662.5,420.5C 1662.5,406.167 1662.5,391.833 1662.5,377.5 Z M 1668.5,383.5 C 1682.02,380.23 1688.36,385.397 1687.5,399C 1688.36,412.603 1682.02,417.77 1668.5,414.5C 1668.5,404.167 1668.5,393.833 1668.5,383.5 Z"/></g>
<g><path style="opacity:0.837" fill="#1a89cd" d="M 851.5,428.5 C 849.833,428.5 848.167,428.5 846.5,428.5C 846.666,425.832 847.666,423.498 849.5,421.5C 848.675,420.614 847.675,420.281 846.5,420.5C 846.5,418.167 846.5,415.833 846.5,413.5C 848.833,413.5 851.167,413.5 853.5,413.5C 853.985,418.729 853.318,423.729 851.5,428.5 Z"/></g>
</svg>
